<?xml version="1.0" encoding="UTF-8" standalone="no"?>
<svg
   xmlns:dc="http://purl.org/dc/elements/1.1/"
   xmlns:cc="http://creativecommons.org/ns#"
   xmlns:rdf="http://www.w3.org/1999/02/22-rdf-syntax-ns#"
   xmlns:svg="http://www.w3.org/2000/svg"
   xmlns="http://www.w3.org/2000/svg"
   xmlns:sodipodi="http://sodipodi.sourceforge.net/DTD/sodipodi-0.dtd"
   xmlns:inkscape="http://www.inkscape.org/namespaces/inkscape"
   version="1.1"
   id="Layer_1"
   x="0px"
   y="0px"
   width="297.45001"
   height="419.87701"
   viewBox="0 0 297.45001 419.87701"
   enable-background="new 0 0 1024 600"
   xml:space="preserve"
   inkscape:version="0.91 r13725"
   sodipodi:docname="css3-logo.svg"><metadata
     id="metadata3415"><rdf:RDF><cc:Work
         rdf:about=""><dc:format>image/svg+xml</dc:format><dc:type
           rdf:resource="http://purl.org/dc/dcmitype/StillImage" /><dc:title></dc:title></cc:Work></rdf:RDF></metadata><defs
     id="defs3413" /><sodipodi:namedview
     pagecolor="#ffffff"
     bordercolor="#666666"
     borderopacity="1"
     objecttolerance="10"
     gridtolerance="10"
     guidetolerance="10"
     inkscape:pageopacity="0"
     inkscape:pageshadow="2"
     inkscape:window-width="1920"
     inkscape:window-height="1017"
     id="namedview3411"
     showgrid="false"
     showguides="false"
     inkscape:zoom="0.99937758"
     inkscape:cx="418.78278"
     inkscape:cy="168.49215"
     inkscape:window-x="-8"
     inkscape:window-y="-8"
     inkscape:window-maximized="1"
     inkscape:current-layer="Layer_1"
     fit-margin-top="0"
     fit-margin-left="0"
     fit-margin-right="0"
     fit-margin-bottom="0" /><g
     id="g3361"
     transform="translate(-700.55,-145.838)"><g
       id="g3363"><polygon
         points="933.643,145.838 933.643,161.385 933.643,161.385 908.954,161.385 934.629,189.244 934.629,202.504 881.746,202.504 881.746,186.979 907.416,186.979 881.746,159.119 881.746,145.838 "
         id="polygon3365"
         style="fill:#020202" /><polygon
         points="871.265,145.838 871.265,161.385 871.265,161.385 846.576,161.385 872.25,189.244 872.25,202.504 819.367,202.504 819.367,186.979 845.039,186.979 819.367,159.119 819.367,145.838 "
         id="polygon3367"
         style="fill:#020202" /><polygon
         points="809.496,145.838 809.496,162.016 782.856,162.016 782.856,186.329 809.496,186.329 809.496,202.504 763.923,202.504 763.923,145.838 "
         id="polygon3369"
         style="fill:#020202" /></g><polygon
       points="700.55,228.374 998,228.374 970.903,531.945 849.093,565.715 727.62,531.994 "
       id="polygon3371"
       style="fill:#1673b6" /><polygon
       points="849.276,253.2 849.276,539.904 947.703,512.615 970.86,253.2 "
       id="polygon3373"
       style="fill:#35a9db" /><g
       id="g3375"><polygon
         points="898.551,363.2 901.953,325.068 849.275,325.068 849.275,287.829 849.404,287.829 942.65,287.829 941.758,297.82 932.605,400.436 849.275,400.436 849.275,363.2 "
         id="polygon3377"
         style="fill:#ffffff" /><polygon
         points="785.061,419.057 767.832,419.057 773.049,477.525 849.326,498.701 849.498,498.652 849.498,459.907 849.336,459.954 807.863,448.754 805.212,419.057 "
         id="polygon3379"
         style="fill:#ebebeb" /><polygon
         points="849.369,498.682 925.709,477.525 926.269,471.234 932.746,398.859 895.386,398.859 890.901,448.729 849.369,459.94 "
         id="polygon3381"
         style="fill:#ffffff" /><polygon
         points="849.404,310.957 849.404,324.976 849.404,325.068 759.576,325.068 759.576,325.068 759.457,325.068 758.711,316.698 757.014,297.82 756.123,287.829 849.404,287.829 "
         id="polygon3383"
         style="fill:#ebebeb" /><polygon
         points="849.275,386.333 849.275,400.35 849.275,400.441 808.447,400.441 808.447,400.441 808.328,400.441 807.582,392.073 805.885,373.195 804.994,363.204 849.275,363.204 "
         id="polygon3385"
         style="fill:#ebebeb" /></g></g></svg>