<?xml version="1.0" encoding="UTF-8" standalone="no"?>
<svg
   xmlns:dc="http://purl.org/dc/elements/1.1/"
   xmlns:cc="http://creativecommons.org/ns#"
   xmlns:rdf="http://www.w3.org/1999/02/22-rdf-syntax-ns#"
   xmlns:svg="http://www.w3.org/2000/svg"
   xmlns="http://www.w3.org/2000/svg"
   xmlns:sodipodi="http://sodipodi.sourceforge.net/DTD/sodipodi-0.dtd"
   xmlns:inkscape="http://www.inkscape.org/namespaces/inkscape"
   version="1.1"
   id="Layer_1"
   x="0px"
   y="0px"
   width="297.45001"
   height="419.95001"
   viewBox="0 0 297.45001 419.95001"
   enable-background="new 0 0 1024 600"
   xml:space="preserve"
   inkscape:version="0.91 r13725"
   sodipodi:docname="js-logo.svg"><metadata
     id="metadata3415"><rdf:RDF><cc:Work
         rdf:about=""><dc:format>image/svg+xml</dc:format><dc:type
           rdf:resource="http://purl.org/dc/dcmitype/StillImage" /><dc:title></dc:title></cc:Work></rdf:RDF></metadata><defs
     id="defs3413" /><sodipodi:namedview
     pagecolor="#ffffff"
     bordercolor="#666666"
     borderopacity="1"
     objecttolerance="10"
     gridtolerance="10"
     guidetolerance="10"
     inkscape:pageopacity="0"
     inkscape:pageshadow="2"
     inkscape:window-width="1920"
     inkscape:window-height="1017"
     id="namedview3411"
     showgrid="false"
     showguides="false"
     inkscape:zoom="0.99937758"
     inkscape:cx="419.04886"
     inkscape:cy="169.83007"
     inkscape:window-x="-8"
     inkscape:window-y="-8"
     inkscape:window-maximized="1"
     inkscape:current-layer="Layer_1"
     fit-margin-top="0"
     fit-margin-left="0"
     fit-margin-right="0"
     fit-margin-bottom="0" /><g
     id="g3387"
     transform="translate(-363.275,-22.525)"><polygon
       points="511.818,442.475 390.345,408.754 363.275,105.132 660.725,105.132 633.627,408.705 "
       id="polygon3389"
       style="fill:#e4a227" /><polygon
       points="511.75,416.287 610.178,389 633.336,129.583 511.75,129.583 "
       id="polygon3391"
       style="fill:#f0bf26" /><g
       id="g3393"><polygon
         points="513.039,79.191 513.039,63.665 538.709,63.665 513.039,35.806 513.039,22.525 564.936,22.525 564.936,38.071 564.936,38.071 540.246,38.071 565.922,65.931 565.922,79.191 "
         id="polygon3395"
         style="fill:#020202" /><path
         d="m 503.621,22.55 0,56.617 -45.543,0 0,-18.714 26.613,0 0,-37.903 18.928,0 0.002,0 z"
         id="path3397"
         inkscape:connector-curvature="0"
         style="fill:#020202" /></g><polygon
       points="447.256,298.075 430.027,298.075 435.244,356.543 511.521,377.719 511.693,377.67 511.693,338.926 511.531,338.973 470.059,327.773 467.406,298.075 "
       id="polygon3399"
       style="fill:#ebebeb" /><polygon
       points="516.812,182.677 516.709,143.954 442.565,143.954 439.811,171.403 431.059,269.438 430.151,279.437 440.186,279.437 516.709,279.437 516.709,242.2 470.855,242.2 476.232,183.758 "
       id="polygon3401"
       style="fill:#ebebeb" /><polygon
       points="580.893,223.579 598.123,223.579 591.609,151.633 516.629,143.937 516.457,143.985 516.457,182.729 516.62,182.683 557.291,185.132 560.742,223.579 "
       id="polygon3403"
       style="fill:#ffffff" /><polyline
       points="594.284,182.843 591.093,143.954 512.49,143.954 512.49,168.106 512.49,182.746 512.49,182.843    594.284,182.843  "
       id="polyline3405"
       style="fill:#ffffff" /><polygon
       points="511.564,338.959 511.564,377.701 587.904,356.543 588.463,350.252 597.215,252.217 598.123,242.218 588.088,242.218 511.564,242.218 511.564,279.454 557.418,279.454 553.096,327.748 "
       id="polygon3407"
       style="fill:#ffffff" /><path
       d="M 589.5,181.193"
       id="path3409"
       inkscape:connector-curvature="0"
       style="fill:#ffffff" /></g></svg>